<?xml version="1.0" standalone="no"?><!DOCTYPE svg PUBLIC "-//W3C//DTD SVG 1.1//EN" "http://www.w3.org/Graphics/SVG/1.1/DTD/svg11.dtd"><svg t="1761218251203" class="icon" viewBox="0 0 1024 1024" version="1.1" xmlns="http://www.w3.org/2000/svg" p-id="13911" xmlns:xlink="http://www.w3.org/1999/xlink" width="200" height="200"><path d="M 279.168 134.784 h 45.696 v 597.248 h -45.696 Z" fill="#deb887" p-id="13912"></path><path d="M 861.312 0 H 162.688 c -5.76 0 -10.368 4.608 -10.368 10.368 v 1003.14 c 0 5.76 4.608 10.368 10.368 10.368 h 698.624 c 5.76 0 10.368 -4.608 10.368 -10.368 V 10.368 c 0 -5.632 -4.608 -10.368 -10.368 -10.368 Z m -61.44 220.16 h 51.072 v 250.368 h -51.072 V 220.16 Z m 0 271.104 h 51.072 v 250.368 h -51.072 V 491.264 Z m 51.072 -291.84 h -51.072 V 20.736 h 51.072 v 178.688 Z M 173.056 20.736 h 606.08 v 982.528 H 173.056 V 20.736 Z m 626.816 982.528 V 762.368 h 51.072 v 240.768 h -51.072 Z" fill="#bfbfbf" p-id="13913"></path><path d="M 356.224 71.296 h -129.28 c -5.76 0 -10.368 4.608 -10.368 10.368 v 679.424 c 0 5.76 4.608 10.368 10.368 10.368 h 129.152 c 5.76 0 10.368 -4.608 10.368 -10.368 V 81.664 c 0.128 -5.76 -4.608 -10.368 -10.24 -10.368 Z m -10.368 679.424 h -108.416 V 92.032 h 108.416 v 658.688 Z" fill="#bfbfbf" p-id="13914"></path><path d="M 258.304 740.608 h 66.432 c 5.76 0 10.368 -4.608 10.368 -10.368 V 112.512 c 0 -5.76 -4.608 -10.368 -10.368 -10.368 h -66.432 c -5.76 0 -10.368 4.608 -10.368 10.368 v 617.728 c 0 5.76 4.608 10.368 10.368 10.368 Z M 268.672 122.88 h 45.696 v 596.992 h -45.696 V 122.88 Z" fill="#bfbfbf" p-id="13915"></path></svg>