<?xml version="1.0" standalone="no"?><!DOCTYPE svg PUBLIC "-//W3C//DTD SVG 1.1//EN" "http://www.w3.org/Graphics/SVG/1.1/DTD/svg11.dtd"><svg t="1761218375315" class="icon" viewBox="0 0 20006 1024" version="1.1" xmlns="http://www.w3.org/2000/svg" p-id="24574" xmlns:xlink="http://www.w3.org/1999/xlink" width="3907.421875" height="200"><path d="M19016.035005 194.304948v427.212386h-7566.002019V448.236957h-391.194884V0h-972.989566v448.236957h-164.836082V0h-972.9034v448.236957h-391.194884v173.280377H990.825985V194.304948H0v829.695052h610.05722V543.795355H380.768765v250.830024H229.288455V423.593403h532.162908v427.212386h8024.751262V677.697745h391.194884V229.546954h514.240323v218.690003h-346.388421v575.763043h575.763043v-346.388421h164.836082v346.388421h575.849209V448.236957h-346.388422V229.546954h514.154157v448.150791h391.28105v173.108044h8024.751263V423.593403h532.076742v371.031976h-151.394144V543.795355h-229.374621v480.204645h610.143386V194.304948h-990.912151z m952.568159 791.437226h-533.627735V581.967014h152.85897v251.002357h227.909795V385.421744h-608.67856v427.212386h-7948.23561V639.353753h-391.194884V191.202962h-590.755975v295.291821h346.474588v499.161225h-499.247392v-346.388421h-241.351733v346.388421H9383.507237V486.494783h346.388421V191.202962h-590.669808V639.353753h-391.194884v173.280377H799.709189V385.421744H191.116796v447.547627h227.823628V581.967014h152.945136v403.77516H38.171659V232.476607h914.3965v427.212387H8595.08583V486.580949h391.194884V38.430158h896.473914v448.064625h241.351733v-448.064625h896.387749v448.064625h391.28105v173.108044h7642.517671V232.476607h914.310333v753.265567z" fill="#BDA679" p-id="24575"></path></svg>