<?xml version="1.0" standalone="no"?><!DOCTYPE svg PUBLIC "-//W3C//DTD SVG 1.1//EN" "http://www.w3.org/Graphics/SVG/1.1/DTD/svg11.dtd"><svg t="1761218258176" class="icon" viewBox="0 0 13052 1024" version="1.1" xmlns="http://www.w3.org/2000/svg" p-id="14075" xmlns:xlink="http://www.w3.org/1999/xlink" width="2549.21875" height="200"><path d="M1349.986264 559.16505c70.62069 11.67344 139.428733 30.669971 205.336543 56.699568 150.159598-186.775048 380.365645-306.69971 637.398853-306.69971s487.239255 119.924662 637.398853 306.69971c65.980316-26.029597 134.715854-45.026128 205.336543-56.699568a1025.450117 1025.450117 0 0 0-126.450188-152.697302c-191.632939-190.617857-445.983431-295.53381-716.285208-295.53381s-524.652269 104.988459-716.285209 295.53381a1025.450117 1025.450117 0 0 0-126.450187 152.697302z" fill="#BDA679" p-id="14076"></path><path d="M2578.452737 760.006231c53.364299-41.763365 110.353891-77.871274 170.243716-107.816186-13.051051-15.298733-26.827161-30.234936-41.255824-44.591093-137.688593-136.963535-320.47582-212.36961-514.646463-212.36961s-376.95787 75.406075-514.646464 212.36961a723.680804 723.680804 0 0 0-41.255824 44.591093c59.817319 29.944913 116.806911 66.052822 170.243716 107.816186 97.012816-102.450754 234.193868-166.545918 385.731077-166.545918s288.645755 64.095164 385.731077 166.545918z" fill="#BDA679" p-id="14077"></path><path d="M2378.264108 968.02549c32.337605-44.80861 68.51802-87.224527 108.468739-126.957728 7.685619-7.613113 15.443744-15.081215 23.346881-22.404305-80.263967-83.526729-192.938044-135.65843-317.285562-135.65843s-237.021596 52.1317-317.285563 135.65843c7.830631 7.32309 15.661262 14.791192 23.346881 22.404305 39.950719 39.733201 76.131134 82.221624 108.468739 126.957728 44.518587-53.074276 111.223961-86.861998 185.542448-86.861998s141.023862 33.860228 185.542449 86.861998zM2094.113715 1020.15719h197.288395c-25.522056-24.869504-60.397366-40.240742-98.607944-40.240742s-73.085888 15.371238-98.680451 40.240742zM2725.20456 0.072506h-270.809318c-11.600935 15.226227-22.83934 30.742477-33.570205 46.621256 70.62069 11.67344 139.428733 30.669971 205.336543 56.699568 29.944913-37.268003 63.080082-71.780783 98.970474-103.248318zM3901.031792 103.320824c65.980316-26.029597 134.715854-45.026128 205.336543-56.699568-10.658359-15.806273-21.896764-31.322524-33.570204-46.621256h-270.809318c35.890392 31.467535 69.025561 66.052822 98.970473 103.248318zM2877.974368 247.534943c97.012816-102.450754 234.193868-166.545918 385.731077-166.545918s288.645755 64.095164 385.731077 166.545918c53.364299-41.763365 110.353891-77.871274 170.243716-107.816186A734.078142 734.078142 0 0 0 3660.964951 0.145012H2866.590951c-41.835871 27.262196-81.206543 58.947249-117.459463 94.982652a723.680804 723.680804 0 0 0-41.255824 44.591093c59.817319 29.944913 116.806911 66.052822 170.243716 107.816186z" fill="#BDA679" p-id="14078"></path><path d="M3580.918502 306.119663c-80.263967-83.526729-192.938044-135.65843-317.285563-135.65843s-237.021596 52.1317-317.285562 135.65843c7.830631 7.32309 15.661262 14.791192 23.346881 22.404305 39.950719 39.733201 76.131134 82.221624 108.468739 126.957729 44.518587-53.074276 111.223961-86.861998 185.542448-86.861999s141.023862 33.860228 185.542449 86.861999c32.337605-44.80861 68.51802-87.297033 108.468738-126.957729 7.685619-7.613113 15.443744-15.081215 23.346881-22.404305zM3263.632939 467.44516c-38.283084 0-73.085888 15.371238-98.68045 40.240742h197.288395c-25.522056-24.869504-60.397366-40.240742-98.607945-40.240742zM637.61637 615.864618c65.980316-26.029597 134.715854-45.026128 205.336544-56.699568a1025.450117 1025.450117 0 0 0-126.450188-152.697302C524.869787 215.922396 270.519295 110.933938 0.217518 110.933938H0v198.23097h0.217518c257.033208 0 487.239255 119.924662 637.398852 306.69971z" fill="#BDA679" p-id="14079"></path><path d="M385.948594 760.006231c53.364299-41.763365 110.353891-77.871274 170.243716-107.816186-13.051051-15.298733-26.827161-30.234936-41.255823-44.591093C377.175388 470.635417 194.388161 395.229342 0.217518 395.229342H0v198.158465h0.217518c151.537209 0 288.645755 64.095164 385.731076 166.545918zM185.759966 968.02549c32.337605-44.80861 68.51802-87.297033 108.468739-126.957728 7.685619-7.613113 15.443744-15.081215 23.346881-22.404305C237.239114 735.064221 124.565036 682.932521 0.217518 682.932521H0v198.158465h0.217518c74.318488 0 141.023862 33.860228 185.542448 86.861998zM0.217518 979.916448H0v40.240742h98.825462c-25.522056-24.869504-60.397366-40.240742-98.607944-40.240742zM548.506691 0.072506H277.697373c-11.600935 15.226227-22.83934 30.742477-33.570205 46.621256 70.62069 11.67344 139.428733 30.669971 205.336544 56.699568 29.944913-37.268003 63.080082-71.780783 98.970473-103.248318zM1724.333923 103.320824c65.980316-26.029597 134.715854-45.026128 205.336544-56.699568-10.658359-15.806273-21.896764-31.322524-33.570205-46.621256h-270.809318c35.890392 31.540041 69.025561 66.052822 98.970474 103.248318zM701.203993 247.534943c97.012816-102.450754 234.193868-166.545918 385.731077-166.545918s288.645755 64.095164 385.731077 166.545918c53.364299-41.763365 110.353891-77.871274 170.243716-107.816186-13.051051-15.298733-26.827161-30.234936-41.255823-44.591093-36.252921-36.035403-75.623593-67.792962-117.459464-95.055158H689.748071a738.537251 738.537251 0 0 0-158.715288 139.646251c59.817319 29.944913 116.806911 66.052822 170.243716 107.816186z" fill="#BDA679" p-id="14080"></path><path d="M1272.477519 455.481697c32.337605-44.80861 68.51802-87.297033 108.468739-126.957729 7.685619-7.613113 15.443744-15.081215 23.346881-22.404305-80.263967-83.526729-192.938044-135.65843-317.285563-135.65843s-237.021596 52.1317-317.285562 135.65843c7.830631 7.32309 15.661262 14.791192 23.346881 22.404305 39.950719 39.733201 76.131134 82.221624 108.468739 126.957729 44.518587-53.074276 111.223961-86.861998 185.542448-86.861999s141.023862 33.860228 185.542449 86.861999zM988.25462 507.685902h197.288395c-25.522056-24.869504-60.397366-40.240742-98.607945-40.240742s-73.085888 15.371238-98.68045 40.240742zM3634.065284 406.540253a1025.450117 1025.450117 0 0 0-126.450188 152.697303c70.62069 11.67344 139.428733 30.669971 205.336543 56.699568 150.159598-186.775048 380.365645-306.69971 637.398853-306.69971V110.933938c-270.301777 0-524.652269 104.988459-716.285208 295.53381z" fill="#BDA679" p-id="14081"></path><path d="M3794.448205 652.190045c59.817319 29.944913 116.806911 66.052822 170.243716 107.816186 97.012816-102.450754 234.193868-166.545918 385.731077-166.545918V395.301848c-194.170644 0-376.95787 75.406075-514.646463 212.36961a723.680804 723.680804 0 0 0-41.255824 44.591092zM4033.06493 818.590951c7.830631 7.32309 15.661262 14.791192 23.346881 22.404305 39.950719 39.733201 76.131134 82.221624 108.468738 126.957728 44.518587-53.074276 111.223961-86.861998 185.542449-86.861998V682.932521c-124.347518 0-237.021596 52.1317-317.285563 135.65843zM4350.350492 1020.15719v-40.240742c-38.283084 0-73.085888 15.371238-98.68045 40.240742H4350.350492z" fill="#BDA679" p-id="14082"></path><path d="M548.506691 1023.927494c144.069107-126.522693 332.656801-203.451391 538.428379-203.451391s394.359272 76.928698 538.42838 203.451391h270.809318c-28.277278-37.122991-59.237273-72.578347-92.952489-106.076046-191.632939-190.617857-445.983431-295.53381-716.285209-295.53381s-524.652269 104.988459-716.285208 295.606316c-33.64271 33.497699-64.602705 68.953055-92.879983 106.076046h270.809318z" fill="#BDA679" p-id="14083"></path><path d="M1484.12207 1023.927494c-117.241946-76.348651-254.060469-117.314452-397.187-117.314451s-279.945054 40.9658-397.186999 117.314451h794.373999z" fill="#BDA679" p-id="14084"></path><path d="M2725.20456 1023.927494c144.069107-126.522693 332.656801-203.451391 538.428379-203.451391s394.359272 76.928698 538.428379 203.451391h270.809319c-28.277278-37.122991-59.237273-72.578347-92.879983-106.076046-191.632939-190.617857-445.983431-295.53381-716.285209-295.53381s-524.652269 104.988459-716.285209 295.606316c-33.64271 33.497699-64.602705 68.953055-92.879983 106.076046h270.809319z" fill="#BDA679" p-id="14085"></path><path d="M3660.819939 1023.927494c-117.241946-76.348651-254.060469-117.314452-397.187-117.314451s-279.945054 41.038306-397.187 117.314451H3660.819939z" fill="#BDA679" p-id="14086"></path><path d="M5700.336756 559.16505c70.62069 11.67344 139.428733 30.669971 205.336543 56.699568 150.159598-186.775048 380.365645-306.69971 637.398853-306.69971s487.239255 119.924662 637.398853 306.69971c65.980316-26.029597 134.715854-45.026128 205.336543-56.699568a1025.450117 1025.450117 0 0 0-126.450188-152.697302c-191.632939-190.617857-445.983431-295.53381-716.285208-295.53381s-524.652269 104.988459-716.285209 295.53381a1025.450117 1025.450117 0 0 0-126.450187 152.697302z" fill="#BDA679" p-id="14087"></path><path d="M6928.803229 760.006231c53.364299-41.763365 110.353891-77.871274 170.243716-107.816186-13.051051-15.298733-26.827161-30.234936-41.255824-44.591093-137.688593-136.963535-320.47582-212.36961-514.646463-212.36961s-376.95787 75.406075-514.646464 212.36961a723.680804 723.680804 0 0 0-41.255823 44.591093c59.817319 29.944913 116.806911 66.052822 170.243716 107.816186 97.012816-102.450754 234.193868-166.545918 385.731076-166.545918s288.645755 64.095164 385.731077 166.545918z" fill="#BDA679" p-id="14088"></path><path d="M6728.6146 968.02549c32.337605-44.80861 68.51802-87.224527 108.468739-126.957728 7.685619-7.613113 15.443744-15.081215 23.346881-22.404305-80.263967-83.526729-192.938044-135.65843-317.285562-135.65843s-237.021596 52.1317-317.285563 135.65843c7.830631 7.32309 15.661262 14.791192 23.346881 22.404305 39.950719 39.733201 76.131134 82.221624 108.468739 126.957728 44.518587-53.074276 111.223961-86.861998 185.542448-86.861998s141.023862 33.860228 185.542449 86.861998zM6444.464207 1020.15719h197.288395c-25.522056-24.869504-60.397366-40.240742-98.607944-40.240742s-73.085888 15.371238-98.680451 40.240742zM7075.555052 0.072506h-270.809318c-11.600935 15.226227-22.83934 30.742477-33.570205 46.621256 70.62069 11.67344 139.428733 30.669971 205.336544 56.699568 29.944913-37.268003 63.080082-71.780783 98.970473-103.248318zM8251.382284 103.320824c65.980316-26.029597 134.715854-45.026128 205.336543-56.699568-10.658359-15.806273-21.896764-31.322524-33.570204-46.621256h-270.809318c35.890392 31.467535 69.025561 66.052822 98.970473 103.248318zM7228.32486 247.534943c97.012816-102.450754 234.193868-166.545918 385.731077-166.545918s288.645755 64.095164 385.731077 166.545918c53.364299-41.763365 110.353891-77.871274 170.243716-107.816186A734.078142 734.078142 0 0 0 8011.315443 0.145012H7216.941443c-41.835871 27.262196-81.206543 58.947249-117.459463 94.982652a723.680804 723.680804 0 0 0-41.255824 44.591093c59.817319 29.944913 116.806911 66.052822 170.243716 107.816186z" fill="#BDA679" p-id="14089"></path><path d="M7931.3415 306.119663c-80.263967-83.526729-192.938044-135.65843-317.285563-135.65843s-237.021596 52.1317-317.285562 135.65843c7.830631 7.32309 15.661262 14.791192 23.346881 22.404305 39.950719 39.733201 76.131134 82.221624 108.468738 126.957729 44.518587-53.074276 111.223961-86.861998 185.542449-86.861999s141.023862 33.860228 185.542448 86.861999c32.337605-44.80861 68.51802-87.297033 108.468739-126.957729 7.685619-7.613113 15.443744-15.081215 23.346881-22.404305zM7613.983431 467.44516c-38.283084 0-73.085888 15.371238-98.68045 40.240742h197.288395c-25.522056-24.869504-60.397366-40.240742-98.607945-40.240742zM4987.966863 615.864618c65.980316-26.029597 134.715854-45.026128 205.336543-56.699568a1025.450117 1025.450117 0 0 0-126.450188-152.697302c-191.632939-190.617857-445.983431-295.53381-716.285208-295.53381H4350.350492v198.23097h0.217518c257.033208 0 487.239255 119.924662 637.398853 306.69971z" fill="#BDA679" p-id="14090"></path><path d="M4736.299087 760.006231c53.364299-41.763365 110.353891-77.871274 170.243716-107.816186-13.051051-15.298733-26.827161-30.234936-41.255824-44.591093-137.688593-136.963535-320.47582-212.36961-514.646464-212.36961h-0.217517v198.158465h0.217517c151.537209 0 288.645755 64.095164 385.731077 166.545918zM4536.110458 968.02549c32.337605-44.80861 68.51802-87.297033 108.468739-126.957728 7.685619-7.613113 15.443744-15.081215 23.346881-22.404305-80.263967-83.526729-192.938044-135.65843-317.285563-135.65843h-0.217517v198.158465h0.217517c74.318488 0 141.023862 33.860228 185.542449 86.861998zM4350.56801 979.916448H4350.350492v40.240742h98.825462c-25.522056-24.869504-60.397366-40.240742-98.607944-40.240742zM4898.857183 0.072506H4628.047865c-11.600935 15.226227-22.83934 30.742477-33.570204 46.621256 70.62069 11.67344 139.428733 30.669971 205.336543 56.699568 29.944913-37.268003 63.080082-71.780783 98.970473-103.248318zM6074.684415 103.320824c65.980316-26.029597 134.715854-45.026128 205.336544-56.699568-10.658359-15.806273-21.896764-31.322524-33.570205-46.621256h-270.809318c35.890392 31.540041 69.025561 66.052822 98.970474 103.248318zM5051.554486 247.534943c97.012816-102.450754 234.193868-166.545918 385.731077-166.545918s288.645755 64.095164 385.731077 166.545918c53.364299-41.763365 110.353891-77.871274 170.243715-107.816186-13.051051-15.298733-26.827161-30.234936-41.255823-44.591093-36.252921-36.035403-75.623593-67.792962-117.459464-95.055158H5040.171068a738.537251 738.537251 0 0 0-158.715287 139.646251c59.817319 29.944913 116.806911 66.052822 170.243716 107.816186z" fill="#BDA679" p-id="14091"></path><path d="M5622.828011 455.481697c32.337605-44.80861 68.51802-87.297033 108.468739-126.957729 7.685619-7.613113 15.443744-15.081215 23.346881-22.404305-80.263967-83.526729-192.938044-135.65843-317.285563-135.65843s-237.021596 52.1317-317.285562 135.65843c7.830631 7.32309 15.661262 14.791192 23.346881 22.404305 39.950719 39.733201 76.131134 82.221624 108.468739 126.957729 44.518587-53.074276 111.223961-86.861998 185.542448-86.861999s141.023862 33.860228 185.542449 86.861999zM5338.605112 507.685902h197.288395c-25.522056-24.869504-60.397366-40.240742-98.607944-40.240742s-73.085888 15.371238-98.680451 40.240742zM7984.415776 406.540253a1025.450117 1025.450117 0 0 0-126.450188 152.697303c70.62069 11.67344 139.428733 30.669971 205.336543 56.699568 150.159598-186.775048 380.365645-306.69971 637.398853-306.69971V110.933938c-270.301777 0-524.652269 104.988459-716.285208 295.53381z" fill="#BDA679" p-id="14092"></path><path d="M8144.798697 652.190045c59.817319 29.944913 116.806911 66.052822 170.243716 107.816186 97.012816-102.450754 234.193868-166.545918 385.731077-166.545918V395.301848c-194.170644 0-376.95787 75.406075-514.646463 212.36961a723.680804 723.680804 0 0 0-41.255824 44.591092zM8383.415422 818.590951c7.830631 7.32309 15.661262 14.791192 23.346881 22.404305 39.950719 39.733201 76.131134 82.221624 108.468739 126.957728 44.518587-53.074276 111.223961-86.861998 185.542448-86.861998V682.932521c-124.347518 0-237.021596 52.1317-317.285563 135.65843zM8700.700984 1020.15719v-40.240742c-38.283084 0-73.085888 15.371238-98.68045 40.240742H8700.700984z" fill="#BDA679" p-id="14093"></path><path d="M4898.857183 1023.927494c144.069107-126.522693 332.656801-203.451391 538.42838-203.451391s394.359272 76.928698 538.428379 203.451391h270.809318c-28.277278-37.122991-59.237273-72.578347-92.952489-106.076046-191.632939-190.617857-445.983431-295.53381-716.285208-295.53381s-524.652269 104.988459-716.285209 295.606316c-33.64271 33.497699-64.602705 68.953055-92.879983 106.076046h270.809318z" fill="#BDA679" p-id="14094"></path><path d="M5834.472562 1023.927494c-117.241946-76.348651-254.060469-117.314452-397.186999-117.314451s-279.945054 40.9658-397.187 117.314451h794.373999z" fill="#BDA679" p-id="14095"></path><path d="M7075.555052 1023.927494c144.069107-126.522693 332.656801-203.451391 538.428379-203.451391s394.359272 76.928698 538.42838 203.451391h270.809318c-28.277278-37.122991-59.237273-72.578347-92.879983-106.076046-191.632939-190.617857-445.983431-295.53381-716.285209-295.53381s-524.652269 104.988459-716.285208 295.606316c-33.64271 33.497699-64.602705 68.953055-92.879983 106.076046h270.809318z" fill="#BDA679" p-id="14096"></path><path d="M8011.170431 1023.927494c-117.241946-76.348651-254.060469-117.314452-397.187-117.314451s-279.945054 41.038306-397.187 117.314451h794.374z" fill="#BDA679" p-id="14097"></path><path d="M10050.687248 559.16505c70.62069 11.67344 139.428733 30.669971 205.336543 56.699568 150.159598-186.775048 380.365645-306.69971 637.398853-306.69971s487.239255 119.924662 637.398853 306.69971c65.980316-26.029597 134.715854-45.026128 205.336543-56.699568a1025.450117 1025.450117 0 0 0-126.450188-152.697302c-191.632939-190.617857-445.983431-295.53381-716.285208-295.53381s-524.652269 104.988459-716.285209 295.53381a1025.450117 1025.450117 0 0 0-126.450187 152.697302z" fill="#BDA679" p-id="14098"></path><path d="M11279.153721 760.006231c53.364299-41.763365 110.353891-77.871274 170.243716-107.816186-13.051051-15.298733-26.827161-30.234936-41.255824-44.591093-137.688593-136.963535-320.47582-212.36961-514.646463-212.36961s-376.95787 75.406075-514.646463 212.36961a723.680804 723.680804 0 0 0-41.255824 44.591093c59.817319 29.944913 116.806911 66.052822 170.243716 107.816186 97.012816-102.450754 234.193868-166.545918 385.731077-166.545918s288.645755 64.095164 385.731077 166.545918z" fill="#BDA679" p-id="14099"></path><path d="M11078.965092 968.02549c32.337605-44.80861 68.51802-87.224527 108.468739-126.957728 7.685619-7.613113 15.443744-15.081215 23.346881-22.404305-80.263967-83.526729-192.938044-135.65843-317.285562-135.65843s-237.021596 52.1317-317.285563 135.65843c7.830631 7.32309 15.661262 14.791192 23.346881 22.404305 39.950719 39.733201 76.131134 82.221624 108.468739 126.957728 44.518587-53.074276 111.223961-86.861998 185.542449-86.861998s141.023862 33.860228 185.542448 86.861998zM10794.814699 1020.15719h197.288395c-25.522056-24.869504-60.397366-40.240742-98.607944-40.240742s-73.085888 15.371238-98.680451 40.240742zM11425.905544 0.072506h-270.809318c-11.600935 15.226227-22.83934 30.742477-33.570205 46.621256 70.62069 11.67344 139.428733 30.669971 205.336544 56.699568 29.944913-37.268003 63.080082-71.780783 98.970473-103.248318zM12601.732776 103.320824c65.980316-26.029597 134.715854-45.026128 205.336544-56.699568-10.658359-15.806273-21.896764-31.322524-33.570205-46.621256h-270.809318c35.890392 31.467535 69.025561 66.052822 98.970473 103.248318zM11578.675352 247.534943c97.012816-102.450754 234.193868-166.545918 385.731077-166.545918s288.645755 64.095164 385.731077 166.545918c53.364299-41.763365 110.353891-77.871274 170.243716-107.816186A734.078142 734.078142 0 0 0 12361.665935 0.145012h-794.374c-41.835871 27.262196-81.206543 58.947249-117.459463 94.982652a723.680804 723.680804 0 0 0-41.255824 44.591093c59.817319 29.944913 116.806911 66.052822 170.243716 107.816186z" fill="#BDA679" p-id="14100"></path><path d="M12281.691992 306.119663c-80.263967-83.526729-192.938044-135.65843-317.285563-135.65843s-237.021596 52.1317-317.285562 135.65843c7.830631 7.32309 15.661262 14.791192 23.346881 22.404305 39.950719 39.733201 76.131134 82.221624 108.468739 126.957729 44.518587-53.074276 111.223961-86.861998 185.542448-86.861999s141.023862 33.860228 185.542449 86.861999c32.337605-44.80861 68.51802-87.297033 108.468738-126.957729 7.685619-7.613113 15.443744-15.081215 23.346881-22.404305zM11964.333923 467.44516c-38.283084 0-73.085888 15.371238-98.68045 40.240742h197.288395c-25.522056-24.869504-60.397366-40.240742-98.607945-40.240742zM9338.317355 615.864618c65.980316-26.029597 134.715854-45.026128 205.336543-56.699568a1025.450117 1025.450117 0 0 0-126.450188-152.697302c-191.632939-190.617857-445.983431-295.53381-716.285208-295.53381h-0.217518v198.23097h0.217518c257.033208 0 487.239255 119.924662 637.398853 306.69971z" fill="#BDA679" p-id="14101"></path><path d="M9086.649579 760.006231c53.364299-41.763365 110.353891-77.871274 170.243716-107.816186-13.051051-15.298733-26.827161-30.234936-41.255824-44.591093-137.688593-136.963535-320.47582-212.36961-514.646463-212.36961h-0.217518v198.158465h0.217518c151.537209 0 288.645755 64.095164 385.731077 166.545918zM8886.46095 968.02549c32.337605-44.80861 68.51802-87.297033 108.468739-126.957728 7.685619-7.613113 15.443744-15.081215 23.346881-22.404305-80.263967-83.526729-192.938044-135.65843-317.285562-135.65843h-0.217518v198.158465h0.217518c74.318488 0 141.023862 33.860228 185.542448 86.861998zM8700.918502 979.916448h-0.217518v40.240742h98.825462c-25.522056-24.869504-60.397366-40.240742-98.607944-40.240742zM9249.207675 0.072506h-270.809318c-11.600935 15.226227-22.83934 30.742477-33.570204 46.621256 70.62069 11.67344 139.428733 30.669971 205.336543 56.699568 29.944913-37.268003 63.080082-71.780783 98.970474-103.248318zM10425.034908 103.320824c65.980316-26.029597 134.715854-45.026128 205.336543-56.699568-10.658359-15.806273-21.896764-31.322524-33.570205-46.621256h-270.809318c35.890392 31.540041 69.025561 66.052822 98.970474 103.248318zM9401.904978 247.534943c97.012816-102.450754 234.193868-166.545918 385.731077-166.545918s288.645755 64.095164 385.731077 166.545918c53.364299-41.763365 110.353891-77.871274 170.243716-107.816186-13.051051-15.298733-26.827161-30.234936-41.255824-44.591093-36.252921-36.035403-75.623593-67.792962-117.459464-95.055158h-794.373999a738.537251 738.537251 0 0 0-158.715288 139.646251c59.817319 29.944913 116.806911 66.052822 170.243716 107.816186z" fill="#BDA679" p-id="14102"></path><path d="M9973.178503 455.481697c32.337605-44.80861 68.51802-87.297033 108.468739-126.957729 7.685619-7.613113 15.443744-15.081215 23.346881-22.404305-80.263967-83.526729-192.938044-135.65843-317.285562-135.65843s-237.021596 52.1317-317.285563 135.65843c7.830631 7.32309 15.661262 14.791192 23.346881 22.404305 39.950719 39.733201 76.131134 82.221624 108.468739 126.957729 44.518587-53.074276 111.223961-86.861998 185.542448-86.861999s141.023862 33.860228 185.542449 86.861999zM9688.955604 507.685902h197.288395c-25.522056-24.869504-60.397366-40.240742-98.607944-40.240742s-73.085888 15.371238-98.680451 40.240742zM12334.766268 406.540253a1025.450117 1025.450117 0 0 0-126.450188 152.697303c70.62069 11.67344 139.428733 30.669971 205.336543 56.699568 150.159598-186.775048 380.365645-306.69971 637.398853-306.69971V110.933938c-270.301777 0-524.652269 104.988459-716.285208 295.53381z" fill="#BDA679" p-id="14103"></path><path d="M12495.149189 652.190045c59.817319 29.944913 116.806911 66.052822 170.243716 107.816186 97.012816-102.450754 234.193868-166.545918 385.731077-166.545918V395.301848c-194.170644 0-376.95787 75.406075-514.646463 212.36961a723.680804 723.680804 0 0 0-41.255824 44.591092zM12733.765914 818.590951c7.830631 7.32309 15.661262 14.791192 23.346881 22.404305 39.950719 39.733201 76.131134 82.221624 108.468739 126.957728 44.518587-53.074276 111.223961-86.861998 185.542448-86.861998V682.932521c-124.347518 0-237.021596 52.1317-317.285562 135.65843zM13051.051476 1020.15719v-40.240742c-38.283084 0-73.085888 15.371238-98.68045 40.240742H13051.051476z" fill="#BDA679" p-id="14104"></path><path d="M9249.207675 1023.927494c144.069107-126.522693 332.656801-203.451391 538.42838-203.451391s394.359272 76.928698 538.428379 203.451391h270.809318c-28.277278-37.122991-59.237273-72.578347-92.952489-106.076046-191.632939-190.617857-445.983431-295.53381-716.285208-295.53381s-524.652269 104.988459-716.285209 295.606316c-33.64271 33.497699-64.602705 68.953055-92.879983 106.076046h270.809318z" fill="#BDA679" p-id="14105"></path><path d="M10184.823055 1023.927494c-117.241946-76.348651-254.060469-117.314452-397.187-117.314451s-279.945054 40.9658-397.187 117.314451h794.374z" fill="#BDA679" p-id="14106"></path><path d="M11425.905544 1023.927494c144.069107-126.522693 332.656801-203.451391 538.428379-203.451391s394.359272 76.928698 538.42838 203.451391h270.809318c-28.277278-37.122991-59.237273-72.578347-92.879983-106.076046-191.632939-190.617857-445.983431-295.53381-716.285209-295.53381s-524.652269 104.988459-716.285208 295.606316c-33.64271 33.497699-64.602705 68.953055-92.879983 106.076046h270.809318z" fill="#BDA679" p-id="14107"></path><path d="M12361.520923 1023.927494c-117.241946-76.348651-254.060469-117.314452-397.187-117.314451s-279.945054 41.038306-397.187 117.314451h794.374z" fill="#BDA679" p-id="14108"></path></svg>