<?xml version="1.0" standalone="no"?><!DOCTYPE svg PUBLIC "-//W3C//DTD SVG 1.1//EN" "http://www.w3.org/Graphics/SVG/1.1/DTD/svg11.dtd"><svg t="1761218466241" class="icon" viewBox="0 0 1024 1024" version="1.1" xmlns="http://www.w3.org/2000/svg" p-id="12659" xmlns:xlink="http://www.w3.org/1999/xlink" width="200" height="200"><path d="M384 204.8m25.6 0l204.8 0q25.6 0 25.6 25.6l0 0q0 25.6-25.6 25.6l-204.8 0q-25.6 0-25.6-25.6l0 0q0-25.6 25.6-25.6Z" fill="#ba972c" p-id="12660"></path><path d="M409.6 665.6v-179.2a25.6 25.6 0 0 1 51.2 0v179.2a25.6 25.6 0 0 1-51.2 0zM563.2 665.6v-179.2a25.6 25.6 0 0 1 51.2 0v179.2a25.6 25.6 0 0 1-51.2 0zM204.8 307.2h614.4a25.6 25.6 0 0 1 0 51.2H204.8a25.6 25.6 0 0 1 0-51.2z" fill="#ba972c" p-id="12661"></path><path d="M307.2 332.8v409.6a51.2 51.2 0 0 0 47.36 51.072L358.4 793.6h307.2a51.2 51.2 0 0 0 51.072-47.36L716.8 742.4V332.8h51.2v409.6a102.4 102.4 0 0 1-97.28 102.272L665.6 844.8H358.4a102.4 102.4 0 0 1-102.272-97.28L256 742.4V332.8h51.2z" fill="#ba972c" p-id="12662"></path></svg>