<?xml version="1.0" standalone="no"?><!DOCTYPE svg PUBLIC "-//W3C//DTD SVG 1.1//EN" "http://www.w3.org/Graphics/SVG/1.1/DTD/svg11.dtd"><svg t="1761218153372" class="icon" viewBox="0 0 1026 1024" version="1.1" xmlns="http://www.w3.org/2000/svg" p-id="6315" xmlns:xlink="http://www.w3.org/1999/xlink" width="200.390625" height="200"><path d="M151.272727 989.090909c-13.963636 0-23.272727-6.981818-23.272727-11.636364v-181.527272l-6.981818-9.309091C65.163636 705.163636 34.909091 609.745455 34.909091 512 34.909091 249.018182 249.018182 34.909091 512 34.909091S989.090909 249.018182 989.090909 512 774.981818 989.090909 512 989.090909H151.272727z" fill="#FBF8F3" p-id="6316"></path><path d="M512 69.818182c244.363636 0 442.181818 197.818182 442.181818 442.181818s-197.818182 442.181818-442.181818 442.181818h-4.654545H162.909091V784.290909l-11.636364-18.618182C97.745455 691.2 69.818182 602.763636 69.818182 512 69.818182 267.636364 267.636364 69.818182 512 69.818182m0-69.818182C228.072727 0 0 228.072727 0 512c0 109.381818 34.909091 211.781818 93.090909 293.236364V977.454545c0 25.6 25.6 46.545455 58.181818 46.545455h363.054546c283.927273 0 512-228.072727 512-512S795.927273 0 512 0z" fill="#AD9073" p-id="6317"></path><path d="M512 756.363636c-160.581818 0-290.909091-130.327273-290.909091-290.909091 0-18.618182 16.290909-34.909091 34.909091-34.90909s34.909091 16.290909 34.909091 34.90909c0 121.018182 100.072727 221.090909 221.090909 221.09091s221.090909-100.072727 221.090909-221.09091c0-18.618182 16.290909-34.909091 34.909091-34.90909s34.909091 16.290909 34.909091 34.90909c0 160.581818-130.327273 290.909091-290.909091 290.909091z" fill="#AD9073" p-id="6318"></path></svg>