<?xml version="1.0" standalone="no"?><!DOCTYPE svg PUBLIC "-//W3C//DTD SVG 1.1//EN" "http://www.w3.org/Graphics/SVG/1.1/DTD/svg11.dtd"><svg t="1761218169935" class="icon" viewBox="0 0 1024 1024" version="1.1" xmlns="http://www.w3.org/2000/svg" p-id="6758" xmlns:xlink="http://www.w3.org/1999/xlink" width="200" height="200"><path d="M512 512c141.4 0 256-114.6 256-256S653.4 0 512 0 256 114.6 256 256s114.6 256 256 256z m0-460.8c112.9 0 204.8 91.9 204.8 204.8S624.9 460.8 512 460.8 307.2 368.9 307.2 256 399.1 51.2 512 51.2z" p-id="6759"></path><path d="M868.7 499.2c-3.8 0-7.6 0.9-11.1 2.5L485.4 679.9 167.8 502.5c-3.8-2.1-8.1-3.3-12.5-3.3-57.4 0-104.1 45.9-104.1 102.4v320c0 56.5 46.7 102.4 104.1 102.4h713.3c57.4 0 104.1-45.9 104.1-102.4v-320c0.1-56.5-46.6-102.4-104-102.4z m52.9 422.4c0 28.2-23.8 51.2-52.9 51.2H155.3c-29.2 0-52.9-23-52.9-51.2v-320c0-26.3 20.5-47.9 46.9-50.9L601 803.2c12.3 6.9 27.9 2.4 34.8-9.9 6.9-12.3 2.5-27.9-9.9-34.8l-85.8-47.9L874 550.7c26.7 2.6 47.6 24.4 47.6 50.9v320z" p-id="6760"></path></svg>