<?xml version="1.0" standalone="no"?><!DOCTYPE svg PUBLIC "-//W3C//DTD SVG 1.1//EN" "http://www.w3.org/Graphics/SVG/1.1/DTD/svg11.dtd"><svg t="1761218143584" class="icon" viewBox="0 0 1024 1024" version="1.1" xmlns="http://www.w3.org/2000/svg" p-id="5219" xmlns:xlink="http://www.w3.org/1999/xlink" width="200" height="200"><path d="M151.04 656.384h458.752c33.792 0 61.44-27.648 61.44-61.44v-453.12c0-33.792-27.648-61.44-61.44-61.44h-458.752c-33.792 0-61.44 27.648-61.44 61.44v453.12c0 33.792 27.648 61.44 61.44 61.44z" fill="#AE7000" p-id="5220"></path><path d="M934.4 242.688c0-26.112-22.016-48.128-48.128-48.128h-611.328c-26.112 0-48.128 22.016-48.128 48.128v439.296l12.8 124.928c2.56 27.648 25.6 48.128 53.248 48.128h74.24v73.728c0 5.12 4.608 9.728 9.728 9.728h409.6c5.632 0 9.728-4.608 9.728-9.728v-73.728h72.192c27.648 0 50.688-20.992 53.76-48.64l12.288-124.416v-1.024-438.272z m-31.744 562.176c-1.536 17.408-15.872 30.72-33.792 30.72h-72.192v-57.856h37.888c5.12 0 9.728-4.608 9.728-9.728v-2.56c0-5.12-4.608-9.728-9.728-9.728h-516.096c-5.12 0-9.728 4.608-9.728 9.728v2.56c0 5.12 4.608 9.728 9.728 9.728h49.152v57.856h-74.24c-17.408 0-32.256-12.8-33.792-30.72l-11.776-114.176h666.112l-11.264 114.176z" fill="#FFFFFF" p-id="5221"></path><path d="M230.912 695.808c-8.192 0-15.36-7.168-15.36-15.36v-437.76c0-29.696 24.064-53.76 53.76-53.76H880.64c29.696 0 53.76 24.064 53.76 53.76v437.76c0 8.704-6.656 15.36-15.36 15.36h-688.128z m672.256-30.72v-422.4c0-12.8-10.24-23.04-23.04-23.04h-611.328c-12.8 0-23.04 10.24-23.04 23.04v422.4h657.408z" fill="#191919" p-id="5222"></path><path d="M919.04 690.176h-688.128c-5.12 0-9.728-4.608-9.728-9.728v-437.76c0-26.112 22.016-48.128 48.128-48.128H880.64c26.112 0 48.128 21.504 48.128 48.128v437.76c-0.512 5.632-4.608 9.728-9.728 9.728z m-678.4-19.456h668.672v-428.032c0-15.872-12.8-28.672-28.672-28.672h-611.328c-15.872 0-28.672 12.8-28.672 28.672v428.032z" fill="#191919" p-id="5223"></path><path d="M777.216 860.16v-30.72h84.992c14.848 0 27.136-11.264 28.16-25.6l10.752-107.52h-653.312l10.752 107.52c1.536 14.848 13.312 25.6 28.16 25.6h87.552v30.72H286.72c-30.72 0-56.32-23.04-58.88-53.248l-12.8-124.928v-0.512c0-4.096 1.024-7.68 3.584-11.264v-0.512l0.512-0.512c3.072-3.072 7.168-5.12 11.264-5.12h688.128c4.096 0 8.192 1.536 11.264 5.12 3.072 3.072 4.096 6.656 4.096 11.776v0.512l-12.288 124.416c-3.584 30.72-29.184 53.76-59.392 53.76h-84.992z m-330.752-341.504c-22.016 0-40.96-18.944-40.96-40.96v-150.528c0-22.016 18.944-40.96 40.96-40.96h255.488c22.016 0 40.96 18.944 40.96 40.96v150.528c0 22.016-18.944 40.96-40.96 40.96h-255.488z m0-201.728c-5.632 0-10.24 4.608-10.24 10.24v150.528c0 5.632 4.608 10.24 10.24 10.24h255.488c5.632 0 10.24-4.608 10.24-10.24v-150.528c0-5.632-4.608-10.24-10.24-10.24h-255.488z" fill="#191919" p-id="5224"></path><path d="M862.72 854.528H783.36V835.072h79.36c17.92 0 32.768-13.312 33.792-30.72l11.776-114.176h-666.112l11.776 114.176c2.048 17.92 16.896 30.72 33.792 30.72h81.92v19.456h-81.92c-27.648 0-50.688-20.48-53.248-48.128l-12.8-124.928c0-2.56 0.512-5.12 2.56-7.68 2.048-2.048 4.608-3.072 7.168-3.072h688.128c2.56 0 5.12 1.536 7.168 3.072 2.048 2.048 2.56 4.608 2.56 7.68l-12.288 124.416c-4.096 27.648-27.136 48.64-54.272 48.64z m-160.768-341.504h-255.488c-19.456 0-35.328-15.872-35.328-35.328v-150.528c0-19.456 15.872-35.328 35.328-35.328h255.488c19.456 0 35.328 15.872 35.328 35.328v150.528c0 18.944-16.384 35.328-35.328 35.328z m-255.488-201.728c-8.704 0-15.872 7.168-15.872 15.872v150.528c0 8.704 7.168 15.872 15.872 15.872h255.488c9.216 0 15.872-7.168 15.872-15.872v-150.528c0-9.216-7.168-15.872-15.872-15.872h-255.488z" fill="#191919" p-id="5225"></path><path d="M664.576 467.968h-179.2c-12.288 0-22.528-10.24-22.528-22.528v-87.04c0-12.288 10.24-22.528 22.528-22.528h179.2c12.288 0 22.528 10.24 22.528 22.528V445.952c-0.512 12.288-9.728 22.016-22.528 22.016z" fill="#AE7000" p-id="5226"></path><path d="M371.2 943.616c-8.192 0-15.36-7.168-15.36-15.36v-161.28c0-8.192 7.168-15.36 15.36-15.36h409.6c8.192 0 15.36 7.168 15.36 15.36v161.28c0 8.704-6.656 15.36-15.36 15.36h-409.6z m393.728-30.72v-130.56h-378.88v130.56h378.88z" fill="#191919" p-id="5227"></path><path d="M780.8 937.984h-409.6c-5.12 0-9.728-4.608-9.728-9.728v-161.28c0-5.12 4.608-9.728 9.728-9.728h409.6c5.12 0 9.728 4.608 9.728 9.728v161.28c-0.512 5.12-4.096 9.728-9.728 9.728z m-400.384-19.456h390.144v-142.336h-390.656l0.512 142.336z" fill="#191919" p-id="5228"></path><path d="M827.904 783.36H312.32c-8.192 0-15.36-7.168-15.36-15.36v-2.56c0-8.192 7.168-15.36 15.36-15.36h516.096c8.192 0 15.36 7.168 15.36 15.36v2.56c-0.512 8.704-7.68 15.36-15.872 15.36z m-515.584-21.504c-2.048 0-3.584 2.048-3.584 3.584v2.56c0 2.048 2.048 3.584 3.584 3.584h516.096c2.048 0 3.584-2.048 3.584-3.584v-2.56c0-2.048-2.048-3.584-3.584-3.584H312.32z" fill="#191919" p-id="5229"></path><path d="M827.904 777.728H312.32c-5.12 0-9.728-4.608-9.728-9.728v-2.56c0-5.12 4.608-9.728 9.728-9.728h516.096c5.12 0 9.728 4.608 9.728 9.728v2.56c-0.512 5.12-5.12 9.728-10.24 9.728" fill="#191919" p-id="5230"></path></svg>