<?xml version="1.0" standalone="no"?><!DOCTYPE svg PUBLIC "-//W3C//DTD SVG 1.1//EN" "http://www.w3.org/Graphics/SVG/1.1/DTD/svg11.dtd"><svg t="1761218444461" class="icon" viewBox="0 0 1024 1024" version="1.1" xmlns="http://www.w3.org/2000/svg" p-id="10500" xmlns:xlink="http://www.w3.org/1999/xlink" width="200" height="200"><path d="M565.333333 896a32 32 0 0 1 0 64h-106.666666a32 32 0 0 1 0-64h106.666666zM512 74.666667A32 32 0 0 1 544 106.666667v44.245333C705.706667 166.976 832 303.402667 832 469.333333v298.645334l53.333333 0.021333a32 32 0 0 1 0 64h-746.666666a32 32 0 0 1 0-64l53.333333-0.021333V469.333333c0-165.930667 126.293333-302.357333 288-318.421333V106.666667A32 32 0 0 1 512 74.666667z m0 138.666666c-139.2 0-252.458667 111.125333-255.914667 249.493334L256 469.333333v298.666667h512V469.333333c0-139.2-111.125333-252.458667-249.493333-255.914666L512 213.333333z" fill="#ba972c" p-id="10501"></path></svg>