<?xml version="1.0" standalone="no"?><!DOCTYPE svg PUBLIC "-//W3C//DTD SVG 1.1//EN" "http://www.w3.org/Graphics/SVG/1.1/DTD/svg11.dtd"><svg t="1761218313024" class="icon" viewBox="0 0 1024 1024" version="1.1" xmlns="http://www.w3.org/2000/svg" p-id="20894" xmlns:xlink="http://www.w3.org/1999/xlink" width="200" height="200"><path d="M873.984 522.752c0 196.608-159.744 356.352-356.352 356.352s-356.352-159.744-356.352-356.352 159.744-356.352 356.352-356.352c197.12 0 356.352 159.744 356.352 356.352z" fill="#F2DCC4" p-id="20895"></path><path d="M497.55758 518.68517a58.368 87.04 84.244 1 0 173.202292-17.458876 58.368 87.04 84.244 1 0-173.202292 17.458876Z" fill="#E3A979" p-id="20896"></path><path d="M339.028117 663.99425a19.456 32.256 85.566 1 0 64.318918-4.987466 19.456 32.256 85.566 1 0-64.318918 4.987466Z" fill="#E3A979" p-id="20897"></path><path d="M600.636857 820.464795a13.824 23.04 85.566 1 0 45.942085-3.562477 13.824 23.04 85.566 1 0-45.942085 3.562477Z" fill="#E3A979" p-id="20898"></path><path d="M626.176 532.48c4.096 14.336 9.728 27.648 16.896 40.448s15.872 24.576 26.112 34.304c2.56 2.56 5.12 5.12 8.192 7.168l8.704 6.656c6.144 3.584 11.776 7.68 18.432 10.24l4.608 2.048c1.536 0.512 3.584 1.024 5.12 1.536l10.24 3.072c7.168 2.048 14.336 3.584 21.504 5.12 14.336 3.584 28.672 6.656 43.008 9.728 7.168 1.536 14.336 3.072 22.016 5.12 7.168 2.048 14.848 5.12 20.992 9.728 6.144 4.096 12.288 8.704 17.92 14.336 5.632 5.632 10.24 11.264 14.336 17.408 4.096 6.144 7.68 12.8 10.752 19.456 3.072 6.656 5.632 13.824 7.68 20.992-6.144-13.312-13.312-26.112-22.528-37.376-8.704-11.776-19.456-20.992-32.256-28.16-12.288-7.168-26.112-9.728-40.96-12.288-14.336-2.56-29.184-5.632-43.52-9.216-7.168-1.536-14.336-3.584-21.504-5.632l-10.752-3.584c-2.048-0.512-3.584-1.024-5.632-2.048l-5.12-2.56c-7.168-3.072-13.312-7.68-19.968-11.776l-8.704-7.168c-3.072-2.56-5.632-5.632-8.192-8.192-20.992-21.504-33.28-50.176-37.376-79.36z" p-id="20899"></path><path d="M722.432 643.072c12.8 6.144 26.112 10.752 39.424 15.872 6.656 2.56 13.312 4.608 19.968 7.168l9.728 3.584c3.584 1.024 6.656 2.56 10.24 4.096 6.656 3.072 13.312 7.168 18.944 12.288s10.24 11.776 13.312 18.432c3.072 6.656 5.12 14.336 5.632 21.504 1.024 7.168 0.512 14.336 0 21.504-2.56-13.824-6.144-27.648-12.8-39.424s-16.896-19.968-29.184-25.6c-6.144-3.072-12.8-5.12-19.456-7.68-6.656-2.56-13.312-5.632-19.456-8.704-13.312-6.656-25.6-13.312-36.352-23.04zM600.576 567.808c22.528-14.336 45.056-28.16 67.584-41.984l67.584-41.984-2.048 3.072c-0.512-26.112-2.048-52.224-4.608-77.824-1.536-12.8-3.072-25.6-5.632-38.4-2.048-13.312-3.584-26.112-5.12-39.424-2.56-26.112-4.096-52.224-5.12-78.848l-0.512-19.968c0-5.12-2.048-11.264-3.584-17.408-3.584-12.288-7.68-24.576-11.776-36.864l1.536 2.56c-10.752-10.24-22.528-19.968-34.304-28.672-12.288-8.704-25.088-16.384-38.4-21.504-6.656-2.56-13.312-3.584-19.968-4.096-7.168 0-14.336 0.512-21.504 1.536-14.848 2.048-29.184 5.632-44.032 9.728-29.184 8.192-57.856 18.432-84.992 30.72-3.072 1.536-6.656 3.072-9.216 5.12-1.536 1.024-3.072 1.536-3.584 2.56-1.024 1.024-2.048 1.536-3.072 3.072-4.096 5.12-7.168 11.776-10.24 18.432-6.144 13.312-11.264 27.648-15.872 42.496-4.608 14.336-8.704 29.184-12.8 44.032-6.656 13.312-0.512 24.576 6.144 39.424l37.888 83.968L482.304 491.52l18.432 41.984 4.608 10.752c1.536 3.584 2.56 6.656 5.12 9.216 5.12 5.12 11.776 8.704 18.432 11.776h-0.512c23.04 1.024 46.08 2.56 69.12 4.096-23.04 0-46.08 0-69.632-0.512h-1.024c-7.168-3.072-14.336-6.144-20.48-11.776-1.536-1.536-3.072-3.072-4.096-5.12-1.024-2.048-1.536-3.584-2.56-5.12l-5.12-10.24-20.48-41.472L435.2 412.16l-39.936-82.944-5.12-10.24c-2.048-3.584-3.072-7.68-4.096-11.776-1.024-4.096-1.536-8.704-1.536-13.312 0-2.56 0.512-5.12 1.536-7.68l0.512-2.56 0.512-2.56 12.288-44.544c4.608-14.848 9.216-29.696 15.872-44.032 3.072-7.168 6.656-14.336 12.288-21.504 1.024-1.536 3.072-3.584 5.12-5.12 2.048-2.048 3.584-2.56 5.632-4.096 3.584-2.56 7.168-4.096 10.752-5.632 28.672-13.312 57.856-23.552 87.552-32.256 14.848-4.096 30.208-7.68 46.08-10.24 7.68-1.024 15.872-2.048 24.064-2.048 8.704 0.512 17.408 2.048 24.576 5.12 15.36 5.632 28.672 14.336 41.984 23.552 12.8 9.216 24.576 19.456 35.84 30.72l1.024 1.024 0.512 1.536c4.096 12.8 8.192 25.088 11.776 37.888 1.024 3.072 1.536 6.656 2.56 9.728 0.512 1.536 0.512 3.584 1.024 5.12 0 1.024 0 2.048 0.512 3.072v2.56l0.512 19.456c1.024 26.112 2.048 52.224 3.584 78.336 1.024 12.8 2.048 26.112 4.096 38.912 1.024 6.144 2.048 13.312 2.56 19.456 1.024 6.656 1.536 13.312 2.048 19.968 2.048 26.112 2.56 52.736 2.048 78.848v2.048l-2.048 1.024-69.632 38.912c-22.528 13.312-45.568 26.112-69.12 38.912z" p-id="20900"></path><path d="M523.264 558.592c3.584-5.632 7.68-10.752 11.776-15.872l12.288-15.36 0.512-0.512 1.024-0.512c12.8-7.68 26.112-14.848 39.424-21.504 13.312-6.656 26.624-13.312 40.96-18.944l3.072-1.024 0.512-0.512 1.024-0.512 2.048-0.512c3.072-0.512 4.608 0 6.656 0 3.584 0 7.68 0 11.264 0.512 7.68 0 14.848 1.024 22.528 1.536 14.848 1.536 29.696 3.072 45.056 5.632-14.848 2.56-30.208 3.584-45.056 5.12-7.68 0.512-14.848 1.024-22.528 1.536l-11.264 0.512c-1.536 0-3.584 0.512-4.608 0.512h-1.024l-2.56 1.024c-13.312 6.144-27.136 12.288-40.448 18.432-13.824 6.144-27.648 11.776-41.472 16.896l1.536-1.024c-5.12 4.096-10.24 8.704-15.36 12.288-4.608 4.608-9.728 8.704-15.36 12.288zM447.488 178.176c5.632 14.336 10.24 28.672 14.336 43.008 4.096 14.336 8.192 29.184 11.776 43.52 3.072 14.848 5.632 29.696 8.704 44.544 3.584 14.848 8.192 29.184 12.8 43.52 5.12 14.336 9.728 28.672 13.824 43.008 4.608 14.336 9.216 28.672 13.312 43.008l11.776 43.52 6.144 21.504c2.048 7.168 4.096 14.336 7.68 20.992l-0.512 0.512c-2.56-3.072-4.608-6.144-6.656-9.728s-3.584-6.656-5.12-10.24c-3.072-7.168-6.144-13.824-8.704-20.992-5.632-14.336-10.24-28.672-14.848-43.008-4.608-14.336-8.192-29.184-11.776-43.52-4.096-14.336-7.168-29.184-10.24-44.032-3.072-14.848-6.144-29.696-10.752-44.032-4.096-14.336-9.728-28.672-13.824-43.008-4.608-14.336-7.68-29.184-10.752-44.032-3.072-14.848-6.144-29.696-7.68-44.544h0.512zM692.736 480.256c-2.56-10.752-4.608-22.016-6.144-33.28-1.536-11.264-2.56-22.016-3.072-33.28 0-11.264 0.512-22.528 0-33.792-0.512-11.264-2.048-22.016-3.584-33.28-2.048-11.264-3.584-22.016-4.608-33.28-1.024-11.264-2.56-22.016-3.072-33.28-1.024-22.528-1.536-44.544 0-67.072h1.024c5.12 22.016 7.68 44.032 10.24 66.56 1.024 11.264 1.536 22.528 2.048 33.28 0.512 11.264 0.512 22.528 0.512 33.792 0 11.264 0 22.528 1.536 33.28 1.024 11.264 3.584 22.016 5.12 33.28 1.536 11.264 2.048 22.016 2.048 33.28s0 22.528-1.024 33.792h-1.024z" p-id="20901"></path><path d="M629.76 500.736c-1.024 11.264-4.608 22.528-8.704 32.768-2.048 5.12-4.608 10.24-7.68 15.36-3.072 4.608-6.656 9.728-12.288 12.288 4.096-4.096 6.144-9.216 8.704-13.824 2.048-5.12 4.608-10.24 6.656-15.36 4.608-10.752 8.192-20.992 13.312-31.232z" p-id="20902"></path><path d="M530.432 558.592c14.848-6.144 29.696-12.288 45.056-17.92 14.848-5.632 30.208-11.264 45.568-16.896 15.36-5.12 30.208-10.752 46.08-15.36l23.04-7.168c7.68-2.048 15.36-4.608 23.04-6.656-7.168 3.072-14.848 6.144-22.528 9.216l-22.528 8.704c-14.848 5.632-30.208 11.264-45.568 16.384s-30.208 10.752-46.08 15.36c-15.36 5.12-30.72 10.24-46.08 14.336z" p-id="20903"></path><path d="M388.608 664.576c1.536 6.144 4.096 11.776 7.168 16.896 3.072 5.12 6.656 10.24 10.752 14.336l3.072 3.072 3.584 2.56c2.56 1.536 5.12 3.072 7.68 4.096l2.048 1.024c0.512 0.512 1.536 0.512 2.048 0.512l4.096 1.536c3.072 0.512 6.144 1.536 8.704 2.048 6.144 1.536 11.776 2.56 17.92 4.096 3.072 0.512 6.144 1.536 9.216 2.048 3.072 1.024 6.144 2.048 8.704 4.096 2.56 1.536 5.12 3.584 7.68 5.632 2.048 2.048 4.096 4.608 6.144 7.168 1.536 2.56 3.072 5.12 4.608 8.192 1.536 2.56 2.56 5.632 3.072 8.704-2.56-5.632-5.632-10.752-9.216-15.36-3.584-4.608-8.192-8.704-13.312-11.776-5.12-3.072-10.752-4.096-16.896-5.12-6.144-1.024-12.288-2.56-17.92-4.096-3.072-0.512-6.144-1.536-8.704-2.56l-4.608-1.536c-0.512-0.512-1.536-0.512-2.048-1.024l-2.048-1.024c-3.072-1.024-5.632-3.072-8.192-4.608l-3.584-3.072-3.584-3.584c-9.728-8.192-14.848-19.968-16.384-32.256z" p-id="20904"></path><path d="M428.032 710.656c5.632 2.56 10.752 4.608 16.384 6.656 2.56 1.024 5.632 2.048 8.192 3.072l4.096 1.536c1.536 0.512 3.072 1.024 4.096 1.536 2.56 1.536 5.632 3.072 7.68 5.12 2.048 2.048 4.096 4.608 5.632 7.68 1.536 3.072 2.048 5.632 2.56 8.704 0.512 3.072 0.512 6.144 0 9.216-1.024-5.632-2.56-11.776-5.12-16.384-2.56-4.608-7.168-8.192-12.288-10.752-2.56-1.024-5.12-2.048-8.192-3.072-2.56-1.024-5.632-2.048-8.192-3.584-4.608-3.072-10.24-5.632-14.848-9.728zM377.856 679.424c9.216-5.632 18.432-11.776 28.16-17.408l28.16-17.408-0.512 1.536c-0.512-10.752-1.024-21.504-2.048-32.256-0.512-5.632-1.536-10.752-2.56-15.872-1.024-5.632-1.536-10.752-2.048-16.384-1.024-10.752-1.536-21.504-2.048-32.768l-0.512-8.192c0-2.048-0.512-4.608-1.536-7.168-1.536-5.12-3.072-10.24-5.12-15.36l0.512 1.024c-4.608-4.096-9.216-8.192-14.336-11.776-5.12-3.584-10.24-6.656-15.872-8.704-2.56-1.024-5.632-1.536-8.192-1.536-3.072 0-6.144 0.512-9.216 0.512-6.144 1.024-12.288 2.56-18.432 4.096-12.288 3.584-24.064 7.68-35.328 12.8-1.536 0.512-2.56 1.536-4.096 2.048-0.512 0.512-1.024 0.512-1.536 1.024-0.512 0.512-1.024 0.512-1.024 1.536-1.536 2.048-3.072 5.12-4.096 7.68-2.56 5.632-4.608 11.776-6.656 17.408-2.048 6.144-3.584 12.288-5.632 18.432-2.56 5.632 0 10.24 2.56 16.384l15.872 34.816 15.36 34.816 7.68 17.408 2.048 4.608c0.512 1.536 1.024 2.56 2.048 3.584 2.048 2.048 4.608 3.584 7.68 5.12 9.728 0.512 18.944 1.024 28.672 1.536h-28.672c-3.072-1.024-6.144-2.56-8.704-5.12-0.512-0.512-1.024-1.024-1.536-2.048-0.512-1.024-0.512-1.536-1.024-2.048l-2.048-4.096-8.192-16.896-16.896-34.304-16.384-34.304-2.048-4.096c-1.024-1.536-1.536-3.072-1.536-5.12-0.512-1.536-0.512-3.584-0.512-5.632 0-1.024 0.512-2.048 0.512-3.072l0.512-1.024 0.512-1.024c1.536-6.144 3.072-12.288 5.12-18.432 2.048-6.144 4.096-12.288 6.656-18.432 1.536-3.072 2.56-6.144 5.12-8.704 0.512-0.512 1.024-1.536 2.048-2.048 1.024-1.024 1.536-1.024 2.048-1.536 1.536-1.024 3.072-1.536 4.608-2.56 11.776-5.632 24.064-9.728 36.352-13.312 6.144-1.536 12.288-3.072 18.944-4.096 3.072-0.512 6.656-1.024 10.24-0.512 3.584 0 7.168 1.024 10.24 2.048 6.656 2.56 11.776 6.144 17.408 9.728 5.12 4.096 10.24 8.192 14.848 12.8l0.512 0.512v0.512c1.536 5.12 3.584 10.24 5.12 15.872 0.512 1.536 0.512 2.56 1.024 4.096 0 0.512 0.512 1.536 0.512 2.048v10.752c0.512 10.752 0.512 21.504 1.536 32.256 0.512 5.632 1.024 10.752 1.536 15.872 0.512 2.56 1.024 5.632 1.024 8.192 0.512 2.56 0.512 5.632 0.512 8.192 1.024 10.752 1.024 22.016 1.024 32.768v1.024l-0.512 0.512-28.672 16.384c-9.728 2.56-19.456 8.192-29.184 13.312z" p-id="20905"></path><path d="M346.112 675.84c1.536-2.048 3.072-4.608 4.608-6.656 1.536-2.048 3.584-4.096 5.12-6.144l0.512-0.512c5.632-3.072 10.752-6.144 16.384-8.704s11.264-5.632 16.896-7.68l1.024-0.512h9.216c3.072 0 6.144 0.512 9.216 0.512 6.144 0.512 12.288 1.024 18.432 2.56-6.144 1.024-12.288 1.536-18.432 2.048-3.072 0-6.144 0.512-9.216 0.512h-6.656l-1.024 0.512-16.896 7.68c-5.632 2.56-11.264 4.608-17.408 7.168l0.512-0.512c-2.048 1.536-4.096 3.584-6.144 5.12-2.048 1.024-4.096 2.56-6.144 4.608zM314.368 517.632c2.048 5.632 4.096 11.776 6.144 17.92 1.536 6.144 3.584 11.776 4.608 17.92 1.024 6.144 2.048 12.288 3.584 18.432 1.536 6.144 3.072 12.288 5.12 17.92 2.048 6.144 4.096 11.776 5.632 17.92 2.048 6.144 3.584 11.776 5.632 17.92l5.12 17.92c1.024 3.072 1.536 6.144 2.56 9.216 1.024 3.072 1.536 6.144 3.072 8.704l-0.512 0.512c-1.024-1.024-2.048-2.56-2.56-4.096-1.024-1.536-1.536-2.56-2.048-4.096-1.024-3.072-2.56-5.632-3.584-8.704-2.048-5.632-4.096-11.776-6.144-17.92-2.048-6.144-3.584-12.288-5.12-17.92-1.536-6.144-3.072-12.288-4.096-18.432-1.536-6.144-2.56-12.288-4.608-18.432-1.536-6.144-4.096-11.776-5.632-17.92-2.048-6.144-3.072-12.288-4.608-17.92-1.024-6.144-2.048-12.288-2.56-18.944zM416.256 643.072c-1.024-4.608-2.048-9.216-2.56-13.824-0.512-4.608-1.024-9.216-1.024-13.824v-13.824c0-4.608-1.024-9.216-1.536-13.824-0.512-4.608-1.536-9.216-2.048-13.824l-1.536-13.824c-0.512-9.216-0.512-18.432 0-27.648h0.512c2.048 9.216 3.072 18.432 4.096 27.648 0.512 4.608 0.512 9.216 1.024 13.824 0 4.608 0.512 9.216 0 13.824 0 4.608 0 9.216 0.512 13.824 0.512 4.608 1.536 9.216 2.048 13.824 0.512 4.608 1.024 9.216 1.024 13.824 0 4.608 0 9.216-0.512 13.824z" p-id="20906"></path><path d="M390.144 651.264c-0.512 4.608-2.048 9.216-3.584 13.824l-3.072 6.144c-1.536 2.048-3.072 4.096-5.12 5.12 1.536-1.536 2.56-3.584 3.584-5.632 1.024-2.048 2.048-4.096 2.56-6.144 1.536-4.608 3.584-8.704 5.632-13.312z" p-id="20907"></path><path d="M348.672 675.84l18.432-7.68c6.144-2.56 12.288-4.608 18.944-6.656 6.144-2.048 12.8-4.608 18.944-6.656l9.728-3.072c3.072-1.024 6.144-2.048 9.728-3.072-3.072 1.536-6.144 2.56-9.216 3.584l-9.216 3.584c-6.144 2.56-12.288 4.608-18.944 6.656-6.144 2.048-12.8 4.608-18.944 6.656-6.656 2.56-12.8 4.608-19.456 6.656z" p-id="20908"></path><path d="M628.736 821.248c1.024 3.072 2.048 5.632 3.584 8.192 1.536 2.56 3.072 4.608 5.12 6.656l1.536 1.536 1.536 1.536c1.024 0.512 2.56 1.536 3.584 2.048l1.024 0.512c0.512 0 0.512 0 1.024 0.512l2.048 0.512c1.536 0.512 3.072 0.512 4.096 1.024 3.072 0.512 5.632 1.536 8.704 2.048 1.536 0.512 3.072 0.512 4.096 1.024 1.536 0.512 3.072 1.024 4.096 2.048 1.024 1.024 2.56 1.536 3.584 2.56 1.024 1.024 2.048 2.048 3.072 3.584 1.024 1.024 1.536 2.56 2.048 4.096 0.512 1.536 1.024 2.56 1.536 4.096-1.024-2.56-2.56-5.12-4.608-7.68-1.536-2.048-4.096-4.096-6.144-5.632-2.56-1.536-5.12-2.048-8.192-2.56-3.072-0.512-5.632-1.024-8.704-2.048-1.536-0.512-3.072-0.512-4.096-1.024l-2.048-0.512c-0.512 0-0.512 0-1.024-0.512l-1.024-0.512c-1.536-0.512-2.56-1.536-4.096-2.56l-1.536-1.536-1.536-1.536c-4.608-4.608-7.168-10.24-7.68-15.872z" p-id="20909"></path><path d="M647.68 842.752l7.68 3.072c1.536 0.512 2.56 1.024 4.096 1.536l2.048 0.512c0.512 0 1.536 0.512 2.048 1.024 1.536 0.512 2.56 1.536 3.584 2.56 1.024 1.024 2.048 2.56 2.56 3.584 0.512 1.536 1.024 2.56 1.024 4.096v4.096c-0.512-2.56-1.024-5.632-2.56-7.68-1.536-2.048-3.584-4.096-5.632-5.12-1.024-0.512-2.56-1.024-4.096-1.536-1.536-0.512-2.56-1.024-4.096-1.536-2.048-1.024-4.608-2.56-6.656-4.608zM623.616 827.904c4.608-2.56 8.704-5.632 13.312-8.192l13.312-8.192-0.512 0.512c0-5.12-0.512-10.24-1.024-15.36-0.512-2.56-0.512-5.12-1.024-7.68s-0.512-5.12-1.024-7.68c-0.512-5.12-1.024-10.24-1.024-15.36v-4.096c0-1.024-0.512-2.048-0.512-3.584-0.512-2.56-1.536-5.12-2.56-7.168l0.512 0.512c-2.048-2.048-4.608-4.096-6.656-5.632-2.56-1.536-5.12-3.072-7.68-4.096-1.536-0.512-2.56-0.512-4.096-1.024-1.536 0-3.072 0-4.096 0.512-3.072 0.512-5.632 1.024-8.704 2.048-5.632 1.536-11.264 3.584-16.896 6.144-0.512 0.512-1.536 0.512-2.048 1.024-0.512 0-0.512 0.512-0.512 0.512l-0.512 0.512c-1.024 1.024-1.536 2.56-2.048 3.584-1.024 2.56-2.048 5.632-3.072 8.192-1.024 3.072-1.536 5.632-2.56 8.704-1.024 2.56 0 4.608 1.024 7.68l7.68 16.384 7.68 16.896 3.584 8.192 1.024 2.048c0.512 0.512 0.512 1.536 1.024 2.048 1.024 1.024 2.56 1.536 3.584 2.56 4.608 0 9.216 0.512 13.824 1.024h-13.824c-1.536-0.512-3.072-1.024-4.096-2.56l-1.024-1.024c0-0.512-0.512-0.512-0.512-1.024l-1.024-2.048-4.096-8.192-8.192-16.384-7.68-16.384-1.024-2.048c-0.512-0.512-0.512-1.536-1.024-2.56 0-1.024-0.512-1.536-0.512-2.56 0-0.512 0-1.024 0.512-1.536v-1.024c1.024-3.072 1.536-5.632 2.56-8.704 1.024-3.072 2.048-5.632 3.072-8.704 0.512-1.536 1.536-3.072 2.56-4.096 0-0.512 0.512-0.512 1.024-1.024l1.024-1.024c0.512-0.512 1.536-1.024 2.048-1.024 5.632-2.56 11.264-4.608 17.408-6.656 3.072-1.024 6.144-1.536 9.216-2.048 1.536 0 3.072-0.512 4.608-0.512 1.536 0 3.584 0.512 5.12 1.024 3.072 1.024 5.632 3.072 8.192 4.608 2.56 2.048 5.12 3.584 7.168 6.144v0.512c1.024 2.56 1.536 5.12 2.56 7.68 0 0.512 0.512 1.536 0.512 2.048V765.952c0 5.12 0.512 10.24 0.512 15.36 0 2.56 0.512 5.12 1.024 7.68 0 1.024 0.512 2.56 0.512 4.096 0 1.536 0.512 2.56 0.512 4.096 0.512 5.12 0.512 10.24 0.512 15.872v0.512h-0.512l-13.824 7.68c-4.096 1.536-8.704 4.096-13.312 6.656z" p-id="20910"></path><path d="M608.256 826.368c0.512-1.024 1.536-2.048 2.56-3.072 1.024-1.024 1.536-2.048 2.56-3.072 2.56-1.536 5.12-3.072 7.68-4.096 2.56-1.536 5.12-2.56 8.192-3.584h4.608c1.536 0 3.072 0 4.608 0.512 3.072 0.512 6.144 0.512 8.704 1.024-3.072 0.512-6.144 0.512-8.704 1.024-1.536 0-3.072 0-4.608 0.512H630.272c-2.56 1.024-5.12 2.56-8.192 3.584-2.56 1.024-5.632 2.56-8.192 3.584h0.512c-1.024 1.024-2.048 1.536-3.072 2.56-1.024-0.512-2.048 0-3.072 1.024zM592.896 750.592c1.024 2.56 2.048 5.632 3.072 8.704 1.024 3.072 1.536 5.632 2.048 8.704 0.512 3.072 1.024 5.632 1.536 8.704 0.512 3.072 1.536 5.632 2.56 8.704 1.024 3.072 2.048 5.632 2.56 8.704 1.024 3.072 1.536 5.632 2.56 8.704l2.56 8.704c0.512 1.536 0.512 3.072 1.024 4.096 0.512 1.536 1.024 3.072 1.536 4.096-0.512-0.512-1.024-1.024-1.536-2.048-0.512-0.512-0.512-1.536-1.024-2.048-0.512-1.536-1.024-2.56-1.536-4.096-1.024-2.56-2.048-5.632-3.072-8.704-1.024-3.072-1.536-5.632-2.56-8.704-0.512-3.072-1.536-5.632-2.048-8.704-0.512-3.072-1.024-5.632-2.048-8.704-1.024-3.072-2.048-5.632-2.56-8.704-1.024-3.072-1.536-5.632-2.048-8.704 0-2.56-0.512-5.632-1.024-8.704zM641.536 810.496c-0.512-2.048-1.024-4.608-1.024-6.656-0.512-2.048-0.512-4.608-0.512-6.656v-6.656c0-2.048-0.512-4.608-0.512-6.656-0.512-2.048-0.512-4.608-1.024-6.656 0-2.048-0.512-4.608-0.512-6.656 0-4.608-0.512-8.704 0-13.312 1.024 4.608 1.536 8.704 2.048 13.312 0 2.048 0.512 4.608 0.512 6.656v6.656c0 2.048 0 4.608 0.512 6.656 0 2.048 0.512 4.608 1.024 6.656s0.512 4.608 0.512 6.656c-0.512 2.56-0.512 4.608-1.024 6.656z" p-id="20911"></path><path d="M629.248 814.592c0 2.048-1.024 4.608-1.536 6.656l-1.536 3.072c-0.512 1.024-1.536 2.048-2.56 2.56 1.024-1.024 1.024-2.048 1.536-2.56l1.536-3.072c0.512-2.56 1.536-4.608 2.56-6.656z" p-id="20912"></path><path d="M609.28 826.368c3.072-1.024 6.144-2.56 8.704-3.584l9.216-3.072 9.216-3.072 4.608-1.536 4.608-1.536c-1.536 0.512-3.072 1.024-4.608 2.048l-4.608 1.536-9.216 3.072-9.216 3.072c-2.56 1.024-5.632 2.048-8.704 3.072z" p-id="20913"></path></svg>